{"title":"Edge Of Tomorrow 2014 HDRIP CHNSUB XVID AC3 ACAB","uid":10950427,"size":1501080024,"categoryP":"porn","categoryS":"other","magnet":"?xt=urn:btih:0dac4ffb125d6ade7f8957e89e787ad491f171bd&amp;dn=Edge+Of+Tomorrow+2014+HDRIP+CHNSUB+XVID+AC3+ACAB&amp;tr=udp%3A%2F%2Ftracker.openbittorrent.com%3A80&amp;tr=udp%3A%2F%2Fopen.demonii.com%3A1337&amp;tr=udp%3A%2F%2Ftracker.coppersurfer.tk%3A6969&amp;tr=udp%3A%2F%2Fexodus.desync.com%3A6969","seeders":2,"leechers":0,"uploader":null,"files":4,"time":1409628204,"description":"Edge Of Tomorrow 2014 HDRIP CHNSUB XVID AC3 ACAB\n &lt;a href=&quot;\nhttp://www.imdb.com/title/tt1631867/&quot; rel=&quot;nofollow&quot; target=&quot;_NEW&quot;&gt;\nhttp://www.imdb.com/title/tt1631867/&lt;/a&gt;\n\nGeneral\n\nFormat : AVI\nFormat/Info : Audio Video Interleave\nFile size : 1.35 GiB\nDuration : 1h 53mn\nOverall bit rate : 1 712 Kbps\n\nVideo\nID : 0\nFormat : MPEG-4 Visual\nFormat profile : Advanced Simple@L5\nFormat settings, BVOP : 2\nFormat settings, QPel : No\nFormat settings, GMC : No warppoints\nFormat settings, Matrix : Default (H.263)\nMuxing mode : Packed bitstream\nCodec ID : XVID\nCodec ID/Hint : XviD\nDuration : 1h 53mn\nBit rate : 1 448 Kbps\nWidth : 720 pixels\nHeight : 304 pixels\nDisplay aspect ratio : 2.35:1\nFrame rate : 25.000 fps\nColor space : YUV\nChroma subsampling : 4:2:0\nBit depth : 8 bits\nScan type : Progressive\nCompression mode : Lossy\nBits/(Pixel*Frame) : 0.265\nStream size : 1.15 GiB (85%)\nWriting library : XviD 65\n\nAudio\nID : 1\nFormat : AC-3\nFormat/Info : Audio Coding 3\nMode extension : CM (complete main)\nFormat settings, Endianness : Big\nCodec ID : 2000\nDuration : 1h 53mn\nBit rate mode : Constant\nBit rate : 256 Kbps\nChannel(s) : 2 channels\nChannel positions : Front: L R\nSampling rate : 44.1 KHz\nBit depth : 16 bits\nCompression mode : Lossy\nStream size : 207 MiB (15%)\nAlignment : Aligned on interleaves\nInterleave, duration : 70 ms (1.74 video frames)\nInterleave, preload duration : 209 ms\nTitle : English\n\n\nSource---Edge.of.Tomorrow.2014.CHSSUB.WEB-DL.x264.AAC-lwn [Thanks]\n.:: GREETS ::.\nto All\n\n\nScreens:\n &lt;a href=&quot;\nhttp://imgfun.biz/x/img-54051bf309b81.html&quot; rel=&quot;nofollow&quot; target=&quot;_NEW&quot;&gt;\nhttp://imgfun.biz/x/img-54051bf309b81.html&lt;/a&gt;\n &lt;a href=&quot;\nhttp://imgfun.biz/x/img-54051c038cfdd.html&quot; rel=&quot;nofollow&quot; target=&quot;_NEW&quot;&gt;\nhttp://imgfun.biz/x/img-54051c038cfdd.html&lt;/a&gt;","torrent":{"xt":"urn:btih:0dac4ffb125d6ade7f8957e89e787ad491f171bd","amp;dn":"Edge+Of+Tomorrow+2014+HDRIP+CHNSUB+XVID+AC3+ACAB","amp;tr":["udp%3A%2F%2Ftracker.openbittorrent.com%3A80","udp%3A%2F%2Fopen.demonii.com%3A1337","udp%3A%2F%2Ftracker.coppersurfer.tk%3A6969","udp%3A%2F%2Fexodus.desync.com%3A6969"],"infoHash":"0dac4ffb125d6ade7f8957e89e787ad491f171bd","infoHashBuffer":{"type":"Buffer","data":[13,172,79,251,18,93,106,222,127,137,87,232,158,120,122,212,145,241,113,189]},"announce":[],"urlList":[]}}